<?xml version="1.0" encoding="UTF-8" standalone="no"?><!-- Generator: Gravit.io --><svg xmlns="http://www.w3.org/2000/svg" xmlns:xlink="http://www.w3.org/1999/xlink" style="isolation:isolate" viewBox="0 0 512 512" width="512pt" height="512pt"><defs><clipPath id="_clipPath_DUmuEnmxOtnPo0JapCF2V72iYsukYLOy"><rect width="512" height="512"/></clipPath></defs><g clip-path="url(#_clipPath_DUmuEnmxOtnPo0JapCF2V72iYsukYLOy)"><path d=" M 268.249 341.44 L 268.249 253.672 C 268.249 211.277 233.757 176.785 191.362 176.785 L 173.29 176.785 L 66.172 418.328 L 191.361 418.328 C 233.757 418.328 268.249 383.836 268.249 341.44 Z " fill="rgb(0,68,150)"/><path d=" M 198.54 481.982 L 52.858 481.982 L 52.858 512 L 459.142 512 L 459.142 481.982 L 292.235 481.982 L 292.235 428.956 C 351.032 399.158 391.43 338.121 391.43 267.819 L 391.43 174.899 L 401.583 164.745 C 416.223 150.105 425.573 131.59 428.69 111.515 L 459.142 111.515 L 459.142 81.497 L 428.68 81.497 C 421.449 35.385 381.453 0 333.344 0 L 314.461 0 C 276.328 0 241.7 22.525 226.241 57.382 L 186.602 146.768 L 191.362 146.768 C 250.31 146.768 298.267 194.726 298.267 253.673 L 298.267 341.441 C 298.267 397.977 254.153 444.393 198.54 448.1 L 198.54 481.982 Z  M 326.159 64.366 L 356.178 64.366 L 356.178 94.384 L 326.159 94.384 L 326.159 64.366 Z  M 262.217 481.982 L 228.559 481.982 L 228.559 447.481 C 240.131 446.353 251.384 444.122 262.217 440.904 L 262.217 481.982 Z " fill="rgb(54,64,172)"/></g></svg>